<svg version="1.1" viewBox="0.0 0.0 503.8503937007874 220.6220472440945" fill="none" stroke="none" stroke-linecap="square" stroke-miterlimit="10" xmlns:xlink="http://www.w3.org/1999/xlink" xmlns="http://www.w3.org/2000/svg"><clipPath id="p.0"><path d="m0 0l503.8504 0l0 220.62204l-503.8504 0l0 -220.62204z" clip-rule="nonzero"/></clipPath><g clip-path="url(#p.0)"><path fill="#000000" fill-opacity="0.0" d="m0 0l503.8504 0l0 220.62204l-503.8504 0z" fill-rule="evenodd"/><path fill="#000000" fill-opacity="0.0" d="m29.813648 152.04724l302.61417 0l0 76.031494l-302.61417 0z" fill-rule="evenodd"/><path fill="#fffffe" d="m38.81365 161.04724l274.35715 0l0 39.199997l-274.35715 0l0 -39.199997z" fill-rule="nonzero"/><path fill="#000000" fill-opacity="0.0" d="m38.81365 165.22028l274.35715 0l0 36.99341l-274.35715 0l0 -36.99341z" fill-rule="nonzero"/><path fill="#795e26" d="m48.5949 181.20412l0 7.9375l4.65625 0q1.171875 0 1.671875 0.453125q0.5 0.453125 0.5 1.1875q0 0.71875 -0.5 1.171875q-0.5 0.453125 -1.671875 0.453125l-9.875 0q-1.1875 0 -1.6875 -0.453125q-0.5 -0.453125 -0.5 -1.1875q0 -0.71875 0.5 -1.171875q0.5 -0.453125 1.6875 -0.453125l1.9375 0l0 -7.9375l-1.5625 0q-1.171875 0 -1.671875 -0.453125q-0.5 -0.46875 -0.5 -1.203125q0 -0.703125 0.5 -1.15625q0.5 -0.46875 1.671875 -0.46875l1.5625 0l0 -1.234375q0 -2.140625 1.59375 -3.546875q1.609375 -1.421875 4.65625 -1.421875q1.359375 0 3.140625 0.25q1.78125 0.25 2.28125 0.703125q0.5 0.4375 0.5 1.140625q0 0.75 -0.453125 1.21875q-0.4375 0.46875 -1.09375 0.46875q-0.296875 0 -0.90625 -0.109375q-2.03125 -0.390625 -3.59375 -0.390625q-1.625 0 -2.234375 0.484375q-0.609375 0.484375 -0.609375 1.203125l0 1.234375l5.03125 0q1.1875 0 1.6875 0.46875q0.5 0.453125 0.5 1.171875q0 0.71875 -0.5 1.1875q-0.5 0.453125 -1.6875 0.453125l-5.03125 0zm22.550068 11.203125l0 -0.765625q-1.21875 0.65625 -2.703125 0.984375q-1.484375 0.328125 -2.703125 0.328125q-2.6250038 0 -4.265629 -1.390625q-1.640625 -1.40625 -1.640625 -3.09375q0 -2.0625 2.09375 -3.8125q2.0937538 -1.765625 5.796879 -1.765625q1.484375 0 3.421875 0.3125l0 -0.78125q0 -0.734375 -0.625 -1.1875q-0.625 -0.46875 -2.40625 -0.46875q-1.4375 0 -3.75 0.578125q-0.8593788 0.203125 -1.3437538 0.203125q-0.65625 0 -1.109375 -0.46875q-0.453125 -0.46875 -0.453125 -1.203125q0 -0.421875 0.15625 -0.71875q0.15625 -0.296875 0.4375 -0.484375q0.296875 -0.1875 1.203125 -0.4375q1.2187538 -0.34375 2.4687538 -0.53125q1.265625 -0.203125 2.28125 -0.203125q3.046875 0 4.734375 1.3125q1.6875 1.3125 1.6875 3.59375l0 6.734375l0.546875 0q1.1875 0 1.6875 0.453125q0.5 0.453125 0.5 1.1875q0 0.71875 -0.5 1.171875q-0.5 0.453125 -1.6875 0.453125l-3.828125 0zm0 -5.859375q-1.953125 -0.375 -3.609375 -0.375q-2.0 0 -3.4375 0.96875q-0.8906288 0.625 -0.8906288 1.265625q0 0.453125 0.4375 0.75q0.7968788 0.515625 2.1875038 0.515625q1.171875 0 2.65625 -0.453125q1.5 -0.46875 2.65625 -1.265625l0 -1.40625zm17.831314 -14.828125l0 3.46875l-3.890625 0l0 -3.46875l3.890625 0zm0.453125 6.203125l0 11.21875l3.921875 0q1.171875 0 1.671875 0.453125q0.515625 0.453125 0.515625 1.1875q0 0.71875 -0.515625 1.171875q-0.5 0.453125 -1.671875 0.453125l-11.125 0q-1.171875 0 -1.671875 -0.453125q-0.5 -0.453125 -0.5 -1.1875q0 -0.71875 0.5 -1.171875q0.5 -0.453125 1.671875 -0.453125l3.921875 0l0 -7.9375l-2.625 0q-1.15625 0 -1.671875 -0.453125q-0.515625 -0.46875 -0.515625 -1.203125q0 -0.703125 0.5 -1.15625q0.515625 -0.46875 1.6875 -0.46875l5.90625 0zm17.300064 0l0 2.046875q2.046875 -1.484375 3.234375 -1.96875q1.1875 -0.5 2.234375 -0.5q1.59375 0 3.09375 1.171875q1.015625 0.796875 1.015625 1.625q0 0.703125 -0.484375 1.203125q-0.484375 0.484375 -1.171875 0.484375q-0.609375 0 -1.28125 -0.609375q-0.671875 -0.609375 -1.1875 -0.609375q-0.6875 0 -2.0625 0.859375q-1.359375 0.859375 -3.390625 2.578125l0 4.9375l4.65625 0q1.171875 0 1.671875 0.453125q0.515625 0.453125 0.515625 1.1875q0 0.71875 -0.515625 1.171875q-0.5 0.453125 -1.671875 0.453125l-9.875 0q-1.171875 0 -1.6875 -0.453125q-0.5 -0.453125 -0.5 -1.1875q0 -0.71875 0.5 -1.171875q0.515625 -0.453125 1.6875 -0.453125l1.953125 0l0 -7.9375l-1.1875 0q-1.1875 0 -1.6875 -0.453125q-0.5 -0.46875 -0.5 -1.203125q0 -0.703125 0.5 -1.15625q0.5 -0.46875 1.6875 -0.46875l4.453125 0zm28.471931 8.90625l-13.406242 0q0.515625 1.265625 1.8125 2.046875q1.296875 0.78125 3.515625 0.78125q1.8124924 0 4.8281174 -0.78125q1.25 -0.3125 1.71875 -0.3125q0.65625 0 1.09375 0.46875q0.453125 0.453125 0.453125 1.15625q0 0.640625 -0.46875 1.09375q-0.640625 0.578125 -3.125 1.125q-2.46875 0.53125 -4.7499924 0.53125q-3.921875 0 -6.28125 -2.21875q-2.34375 -2.21875 -2.34375 -5.453125q0 -3.453125 2.546875 -5.609375q2.546875 -2.15625 5.859375 -2.15625q1.9999924 0 3.6562424 0.703125q1.671875 0.703125 2.484375 1.515625q1.15625 1.171875 1.890625 2.90625q0.515625 1.21875 0.515625 2.8125l0 1.390625zm-3.625 -3.265625q-0.734375 -1.40625 -1.953125 -2.09375q-1.21875 -0.703125 -2.8906174 -0.703125q-1.65625 0 -2.875 0.703125q-1.203125 0.6875 -1.96875 2.09375l9.687492 0zm24.19069 -0.8125q0 4.34375 -2.765625 7.25q-2.765625 2.890625 -6.390625 2.890625q-3.28125 0 -5.90625 -2.40625q-3.25 -2.984375 -3.25 -7.734375q0 -4.765625 3.25 -7.75q2.625 -2.40625 5.90625 -2.40625q3.625 0 6.390625 2.890625q2.765625 2.890625 2.765625 7.265625zm-3.265625 0q0 -2.984375 -1.796875 -4.9375q-1.796875 -1.953125 -4.09375 -1.953125q-2.28125 0 -4.09375 1.96875q-1.796875 1.953125 -1.796875 4.921875q0 2.953125 1.796875 4.90625q1.8125 1.953125 4.09375 1.953125q2.296875 0 4.09375 -1.9375q1.796875 -1.953125 1.796875 -4.921875zm9.628189 7.859375l0 5.359375l1.96875 0q1.171875 0 1.671875 0.453125q0.515625 0.453125 0.515625 1.1875q0 0.71875 -0.515625 1.171875q-0.5 0.453125 -1.671875 0.453125l-5.796875 0q-1.171875 0 -1.671875 -0.453125q-0.5 -0.453125 -0.5 -1.171875q0 -0.734375 0.5 -1.1875q0.515625 -0.453125 1.671875 -0.453125l0.5625 0l0 -14.765625l-0.5625 0q-1.171875 0 -1.671875 -0.453125q-0.5 -0.46875 -0.5 -1.203125q0 -0.703125 0.5 -1.15625q0.5 -0.46875 1.671875 -0.46875l3.828125 0l0 1.125q1.15625 -0.78125 2.375 -1.15625q1.234375 -0.390625 2.53125 -0.390625q3.34375 0 5.703125 2.28125q2.359375 2.265625 2.359375 5.1875q0 3.25 -2.796875 5.34375q-2.328125 1.765625 -5.234375 1.765625q-1.265625 0 -2.5 -0.359375q-1.21875 -0.375 -2.4375 -1.109375zm9.703125 -5.625q0 -0.671875 -0.546875 -1.734375q-0.546875 -1.0625 -1.671875 -1.765625q-1.109375 -0.71875 -2.625 -0.71875q-2.453125 0 -3.875 1.828125q-0.984375 1.265625 -0.984375 2.4375q0 1.296875 1.390625 2.53125q1.40625 1.234375 3.46875 1.234375q2.0625 0 3.453125 -1.21875q1.390625 -1.234375 1.390625 -2.59375zm22.15944 1.84375l-13.40625 0q0.515625 1.265625 1.8125 2.046875q1.296875 0.78125 3.515625 0.78125q1.8125 0 4.828125 -0.78125q1.25 -0.3125 1.71875 -0.3125q0.65625 0 1.09375 0.46875q0.453125 0.453125 0.453125 1.15625q0 0.640625 -0.46875 1.09375q-0.640625 0.578125 -3.125 1.125q-2.46875 0.53125 -4.75 0.53125q-3.921875 0 -6.28125 -2.21875q-2.34375 -2.21875 -2.34375 -5.453125q0 -3.453125 2.546875 -5.609375q2.546875 -2.15625 5.859375 -2.15625q2.0 0 3.65625 0.703125q1.671875 0.703125 2.484375 1.515625q1.15625 1.171875 1.890625 2.90625q0.515625 1.21875 0.515625 2.8125l0 1.390625zm-3.625 -3.265625q-0.734375 -1.40625 -1.953125 -2.09375q-1.21875 -0.703125 -2.890625 -0.703125q-1.65625 0 -2.875 0.703125q-1.203125 0.6875 -1.96875 2.09375l9.6875 0zm14.346939 -5.640625l0 2.046875q2.046875 -1.484375 3.234375 -1.96875q1.1875 -0.5 2.234375 -0.5q1.59375 0 3.09375 1.171875q1.015625 0.796875 1.015625 1.625q0 0.703125 -0.484375 1.203125q-0.484375 0.484375 -1.171875 0.484375q-0.609375 0 -1.28125 -0.609375q-0.671875 -0.609375 -1.1875 -0.609375q-0.6875 0 -2.0625 0.859375q-1.359375 0.859375 -3.390625 2.578125l0 4.9375l4.65625 0q1.171875 0 1.671875 0.453125q0.515625 0.453125 0.515625 1.1875q0 0.71875 -0.515625 1.171875q-0.5 0.453125 -1.671875 0.453125l-9.875 0q-1.171875 0 -1.6875 -0.453125q-0.5 -0.453125 -0.5 -1.1875q0 -0.71875 0.5 -1.171875q0.515625 -0.453125 1.6875 -0.453125l1.953125 0l0 -7.9375l-1.1875 0q-1.1875 0 -1.6875 -0.453125q-0.5 -0.46875 -0.5 -1.203125q0 -0.703125 0.5 -1.15625q0.5 -0.46875 1.6875 -0.46875l4.453125 0zm23.206314 14.484375l0 -0.765625q-1.21875 0.65625 -2.703125 0.984375q-1.484375 0.328125 -2.703125 0.328125q-2.625 0 -4.265625 -1.390625q-1.640625 -1.40625 -1.640625 -3.09375q0 -2.0625 2.09375 -3.8125q2.09375 -1.765625 5.796875 -1.765625q1.484375 0 3.421875 0.3125l0 -0.78125q0 -0.734375 -0.625 -1.1875q-0.625 -0.46875 -2.40625 -0.46875q-1.4375 0 -3.75 0.578125q-0.859375 0.203125 -1.34375 0.203125q-0.65625 0 -1.109375 -0.46875q-0.453125 -0.46875 -0.453125 -1.203125q0 -0.421875 0.15625 -0.71875q0.15625 -0.296875 0.4375 -0.484375q0.296875 -0.1875 1.203125 -0.4375q1.21875 -0.34375 2.46875 -0.53125q1.265625 -0.203125 2.28125 -0.203125q3.046875 0 4.734375 1.3125q1.6875 1.3125 1.6875 3.59375l0 6.734375l0.546875 0q1.1875 0 1.6875 0.453125q0.5 0.453125 0.5 1.1875q0 0.71875 -0.5 1.171875q-0.5 0.453125 -1.6875 0.453125l-3.828125 0zm0 -5.859375q-1.953125 -0.375 -3.609375 -0.375q-2.0 0 -3.4375 0.96875q-0.890625 0.625 -0.890625 1.265625q0 0.453125 0.4375 0.75q0.796875 0.515625 2.1875 0.515625q1.171875 0 2.65625 -0.453125q1.5 -0.46875 2.65625 -1.265625l0 -1.40625zm15.862564 -5.34375l0 6.546875q0 1.046875 0.421875 1.390625q0.671875 0.515625 2.390625 0.515625q2.5 0 4.625 -1.0625q0.8125 -0.40625 1.28125 -0.40625q0.640625 0 1.109375 0.484375q0.46875 0.46875 0.46875 1.15625q0 0.625 -0.515625 1.09375q-0.78125 0.75 -3.09375 1.390625q-2.296875 0.625 -3.875 0.625q-3.046875 0 -4.578125 -1.3125q-1.515625 -1.328125 -1.515625 -3.234375l0 -7.1875l-1.171875 0q-1.1875 0 -1.6875 -0.453125q-0.5 -0.46875 -0.5 -1.203125q0 -0.703125 0.5 -1.15625q0.5 -0.46875 1.6875 -0.46875l1.171875 0l0 -2.9375q0 -1.1875 0.453125 -1.6875q0.46875 -0.5 1.1875 -0.5q0.71875 0 1.171875 0.5q0.46875 0.5 0.46875 1.6875l0 2.9375l6.03125 0q1.1875 0 1.6875 0.46875q0.5 0.453125 0.5 1.171875q0 0.71875 -0.5 1.1875q-0.5 0.453125 -1.6875 0.453125l-6.03125 0zm21.56569 -9.484375l0 3.46875l-3.890625 0l0 -3.46875l3.890625 0zm0.453125 6.203125l0 11.21875l3.921875 0q1.171875 0 1.671875 0.453125q0.515625 0.453125 0.515625 1.1875q0 0.71875 -0.515625 1.171875q-0.5 0.453125 -1.671875 0.453125l-11.125 0q-1.171875 0 -1.671875 -0.453125q-0.5 -0.453125 -0.5 -1.1875q0 -0.71875 0.5 -1.171875q0.5 -0.453125 1.671875 -0.453125l3.921875 0l0 -7.9375l-2.625 0q-1.15625 0 -1.671875 -0.453125q-0.515625 -0.46875 -0.515625 -1.203125q0 -0.703125 0.5 -1.15625q0.515625 -0.46875 1.6875 -0.46875l5.90625 0zm26.471954 7.515625q0 1.875 -1.046875 3.640625q-1.046875 1.765625 -3.109375 2.8125q-2.0625 1.046875 -4.3125 1.046875q-2.234375 0 -4.28125 -1.03125q-2.03125 -1.03125 -3.109375 -2.796875q-1.0625 -1.78125 -1.0625 -3.703125q0 -1.96875 1.078125 -3.84375q1.09375 -1.890625 3.125 -2.96875q2.03125 -1.09375 4.25 -1.09375q2.234375 0 4.296875 1.109375q2.0625 1.109375 3.109375 2.984375q1.0625 1.859375 1.0625 3.84375zm-3.28125 0.015625q0 -1.578125 -1.125 -2.90625q-1.546875 -1.78125 -4.0625 -1.78125q-2.21875 0 -3.703125 1.421875q-1.484375 1.421875 -1.484375 3.28125q0 1.53125 1.5 2.859375q1.5 1.328125 3.6875 1.328125q2.1875 0 3.6875 -1.328125q1.5 -1.328125 1.5 -2.875zm11.065674 -7.53125l0 1.109375q0.890625 -0.765625 1.96875 -1.140625q1.078125 -0.390625 2.34375 -0.390625q2.90625 0 4.59375 1.796875q1.34375 1.4375 1.34375 3.765625l0 6.078125q1.03125 0 1.515625 0.453125q0.5 0.453125 0.5 1.1875q0 0.71875 -0.5 1.171875q-0.5 0.453125 -1.6875 0.453125l-2.9375 0q-1.1875 0 -1.6875 -0.453125q-0.5 -0.453125 -0.5 -1.1875q0 -0.71875 0.484375 -1.171875q0.5 -0.453125 1.53125 -0.453125l0 -6.171875q0 -1.078125 -0.5625 -1.5625q-0.75 -0.640625 -2.25 -0.640625q-1.140625 0 -2.0 0.4375q-0.84375 0.4375 -2.15625 1.859375l0 6.078125q1.265625 0 1.625 0.234375q0.78125 0.484375 0.78125 1.40625q0 0.71875 -0.5 1.171875q-0.5 0.453125 -1.671875 0.453125l-3.71875 0q-1.1875 0 -1.6875 -0.453125q-0.5 -0.453125 -0.5 -1.1875q0 -0.890625 0.765625 -1.390625q0.390625 -0.234375 1.640625 -0.234375l0 -7.9375q-1.03125 0 -1.53125 -0.46875q-0.484375 -0.46875 -0.484375 -1.1875q0 -0.703125 0.5 -1.15625q0.5 -0.46875 1.671875 -0.46875l3.109375 0z" fill-rule="nonzero"/><path fill="#010000" fill-opacity="0.0" d="m313.1708 165.22028l0 0l0 36.99341l0 0l0 -36.99341z" fill-rule="nonzero"/><path fill="#000000" fill-opacity="0.0" d="m396.51968 49.1916l120.75589 0l0 87.93701l-120.75589 0z" fill-rule="evenodd"/><path fill="#fffffe" d="m405.51968 58.1916l65.992004 0l0 44.000004l-65.992004 0l0 -44.000004z" fill-rule="nonzero"/><path fill="#000000" fill-opacity="0.0" d="m405.51968 62.874557l65.992004 0l0 41.52466l-65.992004 0l0 -41.52466z" fill-rule="nonzero"/><path fill="#795e26" d="m419.81656 93.3916l0 -0.859375q-1.375 0.734375 -3.046875 1.09375q-1.65625 0.375 -3.015625 0.375q-2.953125 0 -4.796875 -1.5625q-1.84375 -1.578125 -1.84375 -3.46875q0 -2.3125 2.34375 -4.28125q2.359375 -1.984375 6.515625 -1.984375q1.671875 0 3.84375 0.359375l0 -0.875q0 -0.828125 -0.703125 -1.34375q-0.703125 -0.515625 -2.6875 -0.515625q-1.640625 0 -4.234375 0.640625q-0.96875 0.234375 -1.5 0.234375q-0.734375 0 -1.25 -0.53125q-0.5 -0.53125 -0.5 -1.34375q0 -0.46875 0.171875 -0.8125q0.1875 -0.34375 0.5 -0.546875q0.328125 -0.203125 1.34375 -0.484375q1.359375 -0.375 2.765625 -0.59375q1.421875 -0.234375 2.578125 -0.234375q3.40625 0 5.296875 1.484375q1.890625 1.46875 1.890625 4.03125l0 7.546875l0.625 0q1.328125 0 1.890625 0.515625q0.5625 0.5 0.5625 1.328125q0 0.8125 -0.5625 1.328125q-0.5625 0.5 -1.890625 0.5l-4.296875 0zm0 -6.5625q-2.203125 -0.4375 -4.0625 -0.4375q-2.234375 0 -3.84375 1.09375q-1.0 0.703125 -1.0 1.40625q0 0.53125 0.484375 0.84375q0.890625 0.59375 2.453125 0.59375q1.3125 0 2.984375 -0.515625q1.6875 -0.515625 2.984375 -1.421875l0 -1.5625zm27.122345 -16.65625l0 19.546875l0.625 0q1.3125 0 1.875 0.515625q0.578125 0.5 0.578125 1.328125q0 0.8125 -0.5625 1.328125q-0.5625 0.5 -1.890625 0.5l-4.296875 0l0 -0.890625q-1.25 0.734375 -2.625 1.109375q-1.359375 0.375 -2.828125 0.375q-4.140625 0 -6.671875 -2.390625q-2.515625 -2.390625 -2.515625 -5.953125q0 -3.71875 2.640625 -6.34375q2.65625 -2.640625 6.46875 -2.640625q1.4375 0 2.8125 0.4375q1.375 0.4375 2.71875 1.3125l0 -4.5625l-0.625 0q-1.328125 0 -1.890625 -0.5q-0.5625 -0.515625 -0.5625 -1.328125q0 -0.8125 0.5625 -1.328125q0.5625 -0.515625 1.890625 -0.515625l4.296875 0zm-3.671875 15.578125q0 -2.28125 -1.59375 -3.84375q-1.59375 -1.578125 -3.90625 -1.578125q-2.28125 0 -3.875 1.578125q-1.59375 1.5625 -1.59375 3.78125q0 2.03125 1.421875 3.328125q1.4375 1.296875 4.046875 1.296875q2.59375 0 4.046875 -1.296875q1.453125 -1.296875 1.453125 -3.265625zm25.66919 -15.578125l0 19.546875l0.625 0q1.3125 0 1.875 0.515625q0.578125 0.5 0.578125 1.328125q0 0.8125 -0.5625 1.328125q-0.5625 0.5 -1.890625 0.5l-4.296875 0l0 -0.890625q-1.25 0.734375 -2.625 1.109375q-1.359375 0.375 -2.828125 0.375q-4.140625 0 -6.671875 -2.390625q-2.515625 -2.390625 -2.515625 -5.953125q0 -3.71875 2.640625 -6.34375q2.65625 -2.640625 6.46875 -2.640625q1.4375 0 2.8125 0.4375q1.375 0.4375 2.71875 1.3125l0 -4.5625l-0.625 0q-1.328125 0 -1.890625 -0.5q-0.5625 -0.515625 -0.5625 -1.328125q0 -0.8125 0.5625 -1.328125q0.5625 -0.515625 1.890625 -0.515625l4.296875 0zm-3.671875 15.578125q0 -2.28125 -1.59375 -3.84375q-1.59375 -1.578125 -3.90625 -1.578125q-2.28125 0 -3.875 1.578125q-1.59375 1.5625 -1.59375 3.78125q0 2.03125 1.421875 3.328125q1.4375 1.296875 4.046875 1.296875q2.59375 0 4.046875 -1.296875q1.453125 -1.296875 1.453125 -3.265625z" fill-rule="nonzero"/><path fill="#000000" fill-opacity="0.0" d="m471.5117 62.874557l0 0l0 41.52466l0 0l0 -41.52466z" fill-rule="nonzero"/><path fill="#000000" fill-opacity="0.0" d="m181.12073 152.04724l215.40158 -58.897636" fill-rule="evenodd"/><path stroke="#000000" stroke-width="4.0" stroke-linejoin="round" stroke-linecap="butt" d="m181.12073 152.04724l200.77838 -54.899185" fill-rule="evenodd"/><path fill="#000000" stroke="#000000" stroke-width="4.0" stroke-linecap="butt" d="m394.59314 93.67711c0.9584656 3.5053558 -1.1062012 7.124008 -4.6115417 8.082481c-3.505371 0.9584732 -7.1240234 -1.1061783 -8.082489 -4.611534c-0.9584656 -3.5053558 1.1061707 -7.124008 4.6115417 -8.082481c3.5053406 -0.95848083 7.123993 1.1061783 8.082489 4.611534z" fill-rule="nonzero"/><path fill="#000000" fill-opacity="0.0" d="m140.12335 78.98688l207.21262 0l0 58.14174l-207.21262 0z" fill-rule="evenodd"/><path fill="#000000" d="m156.62335 105.906876l0 -1.21875q-0.90625 1.4375 -2.703125 1.4375q-1.15625 0 -2.125 -0.640625q-0.96875 -0.640625 -1.5 -1.78125q-0.53125 -1.140625 -0.53125 -2.625q0 -1.453125 0.484375 -2.625q0.484375 -1.1875 1.4375 -1.8125q0.96875 -0.625 2.171875 -0.625q0.875 0 1.546875 0.375q0.6875 0.359375 1.109375 0.953125l0 -4.796875l1.640625 0l0 13.359375l-1.53125 0zm-5.171875 -4.828125q0 1.859375 0.78125 2.78125q0.78125 0.921875 1.84375 0.921875q1.078125 0 1.828125 -0.875q0.75 -0.890625 0.75 -2.6875q0 -1.984375 -0.765625 -2.90625q-0.765625 -0.9375 -1.890625 -0.9375q-1.078125 0 -1.8125 0.890625q-0.734375 0.890625 -0.734375 2.8125zm15.906967 1.71875l1.6875 0.203125q-0.40625 1.484375 -1.484375 2.3125q-1.078125 0.8125 -2.765625 0.8125q-2.125 0 -3.375 -1.296875q-1.234375 -1.3125 -1.234375 -3.671875q0 -2.453125 1.25 -3.796875q1.265625 -1.34375 3.265625 -1.34375q1.9375 0 3.15625 1.328125q1.234375 1.3125 1.234375 3.703125q0 0.15625 0 0.4375l-7.21875 0q0.09375 1.59375 0.90625 2.453125q0.8125 0.84375 2.015625 0.84375q0.90625 0 1.546875 -0.46875q0.640625 -0.484375 1.015625 -1.515625zm-5.390625 -2.65625l5.40625 0q-0.109375 -1.21875 -0.625 -1.828125q-0.78125 -0.953125 -2.03125 -0.953125q-1.125 0 -1.90625 0.765625q-0.765625 0.75 -0.84375 2.015625zm1.546875 -5.109375l1.21875 -2.546875l2.15625 0l-2.015625 2.546875l-1.359375 0zm7.594467 14.578125l0 -13.375l1.484375 0l0 1.25q0.53125 -0.734375 1.1875 -1.09375q0.671875 -0.375 1.625 -0.375q1.234375 0 2.171875 0.640625q0.953125 0.625 1.4375 1.796875q0.484375 1.15625 0.484375 2.546875q0 1.484375 -0.53125 2.671875q-0.53125 1.1875 -1.546875 1.828125q-1.015625 0.625 -2.140625 0.625q-0.8125 0 -1.46875 -0.34375q-0.65625 -0.34375 -1.0625 -0.875l0 4.703125l-1.640625 0zm1.484375 -8.484375q0 1.859375 0.75 2.765625q0.765625 0.890625 1.828125 0.890625q1.09375 0 1.875 -0.921875q0.78125 -0.9375 0.78125 -2.875q0 -1.84375 -0.765625 -2.765625q-0.75 -0.921875 -1.8125 -0.921875q-1.046875 0 -1.859375 0.984375q-0.796875 0.96875 -0.796875 2.84375zm15.516342 1.671875l1.6875 0.203125q-0.40625 1.484375 -1.484375 2.3125q-1.078125 0.8125 -2.765625 0.8125q-2.125 0 -3.375 -1.296875q-1.234375 -1.3125 -1.234375 -3.671875q0 -2.453125 1.25 -3.796875q1.265625 -1.34375 3.265625 -1.34375q1.9375 0 3.15625 1.328125q1.234375 1.3125 1.234375 3.703125q0 0.15625 0 0.4375l-7.21875 0q0.09375 1.59375 0.90625 2.453125q0.8125 0.84375 2.015625 0.84375q0.90625 0 1.546875 -0.46875q0.640625 -0.484375 1.015625 -1.515625zm-5.390625 -2.65625l5.40625 0q-0.109375 -1.21875 -0.625 -1.828125q-0.78125 -0.953125 -2.03125 -0.953125q-1.125 0 -1.90625 0.765625q-0.765625 0.75 -0.84375 2.015625zm9.141342 5.765625l0 -9.671875l1.46875 0l0 1.375q1.0625 -1.59375 3.078125 -1.59375q0.875 0 1.609375 0.3125q0.734375 0.3125 1.09375 0.828125q0.375 0.5 0.515625 1.203125q0.09375 0.453125 0.09375 1.59375l0 5.953125l-1.640625 0l0 -5.890625q0 -1.0 -0.203125 -1.484375q-0.1875 -0.5 -0.671875 -0.796875q-0.484375 -0.296875 -1.140625 -0.296875q-1.046875 0 -1.8125 0.671875q-0.75 0.65625 -0.75 2.515625l0 5.28125l-1.640625 0zm16.641342 0l0 -1.21875q-0.90625 1.4375 -2.703125 1.4375q-1.15625 0 -2.125 -0.640625q-0.96875 -0.640625 -1.5 -1.78125q-0.53125 -1.140625 -0.53125 -2.625q0 -1.453125 0.484375 -2.625q0.484375 -1.1875 1.4375 -1.8125q0.96875 -0.625 2.171875 -0.625q0.875 0 1.546875 0.375q0.6875 0.359375 1.109375 0.953125l0 -4.796875l1.640625 0l0 13.359375l-1.53125 0zm-5.171875 -4.828125q0 1.859375 0.78125 2.78125q0.78125 0.921875 1.84375 0.921875q1.078125 0 1.828125 -0.875q0.75 -0.890625 0.75 -2.6875q0 -1.984375 -0.765625 -2.90625q-0.765625 -0.9375 -1.890625 -0.9375q-1.078125 0 -1.8125 0.890625q-0.734375 0.890625 -0.734375 2.8125zm14.855896 4.828125l0 -8.40625l-1.453125 0l0 -1.265625l1.453125 0l0 -1.03125q0 -0.96875 0.171875 -1.453125q0.234375 -0.640625 0.828125 -1.03125q0.59375 -0.390625 1.671875 -0.390625q0.6875 0 1.53125 0.15625l-0.25 1.4375q-0.5 -0.09375 -0.953125 -0.09375q-0.75 0 -1.0625 0.328125q-0.3125 0.3125 -0.3125 1.1875l0 0.890625l1.890625 0l0 1.265625l-1.890625 0l0 8.40625l-1.625 0zm4.183304 -4.84375q0 -2.6875 1.484375 -3.96875q1.25 -1.078125 3.046875 -1.078125q2.0 0 3.265625 1.3125q1.265625 1.296875 1.265625 3.609375q0 1.859375 -0.5625 2.9375q-0.5625 1.0625 -1.640625 1.65625q-1.0625 0.59375 -2.328125 0.59375q-2.03125 0 -3.28125 -1.296875q-1.25 -1.3125 -1.25 -3.765625zm1.6875 0q0 1.859375 0.796875 2.796875q0.8125 0.921875 2.046875 0.921875q1.21875 0 2.03125 -0.921875q0.8125 -0.9375 0.8125 -2.84375q0 -1.796875 -0.8125 -2.71875q-0.8125 -0.921875 -2.03125 -0.921875q-1.234375 0 -2.046875 0.921875q-0.796875 0.90625 -0.796875 2.765625zm9.281967 4.84375l0 -9.671875l1.46875 0l0 1.46875q0.5625 -1.03125 1.03125 -1.359375q0.484375 -0.328125 1.0625 -0.328125q0.828125 0 1.6875 0.53125l-0.5625 1.515625q-0.609375 -0.359375 -1.203125 -0.359375q-0.546875 0 -0.96875 0.328125q-0.421875 0.328125 -0.609375 0.890625q-0.28125 0.875 -0.28125 1.921875l0 5.0625l-1.625 0zm9.806427 -1.46875l0.234375 1.453125q-0.6875 0.140625 -1.234375 0.140625q-0.890625 0 -1.390625 -0.28125q-0.484375 -0.28125 -0.6875 -0.734375q-0.203125 -0.46875 -0.203125 -1.9375l0 -5.578125l-1.203125 0l0 -1.265625l1.203125 0l0 -2.390625l1.625 -0.984375l0 3.375l1.65625 0l0 1.265625l-1.65625 0l0 5.671875q0 0.6875 0.078125 0.890625q0.09375 0.203125 0.28125 0.328125q0.203125 0.109375 0.578125 0.109375q0.265625 0 0.71875 -0.0625zm8.230179 -1.640625l1.6875 0.203125q-0.40625 1.484375 -1.484375 2.3125q-1.078125 0.8125 -2.765625 0.8125q-2.125 0 -3.375 -1.296875q-1.234375 -1.3125 -1.234375 -3.671875q0 -2.453125 1.25 -3.796875q1.265625 -1.34375 3.265625 -1.34375q1.9375 0 3.15625 1.328125q1.234375 1.3125 1.234375 3.703125q0 0.15625 0 0.4375l-7.21875 0q0.09375 1.59375 0.90625 2.453125q0.8125 0.84375 2.015625 0.84375q0.90625 0 1.546875 -0.46875q0.640625 -0.484375 1.015625 -1.515625zm-5.390625 -2.65625l5.40625 0q-0.109375 -1.21875 -0.625 -1.828125q-0.78125 -0.953125 -2.03125 -0.953125q-1.125 0 -1.90625 0.765625q-0.765625 0.75 -0.84375 2.015625zm9.141342 5.765625l0 -9.671875l1.4687653 0l0 1.359375q0.453125 -0.71875 1.203125 -1.140625q0.765625 -0.4375 1.71875 -0.4375q1.078125 0 1.765625 0.453125q0.6875 0.4375 0.96875 1.234375q1.15625 -1.6875 2.984375 -1.6875q1.453125 0 2.21875 0.796875q0.78125 0.796875 0.78125 2.453125l0 6.640625l-1.640625 0l0 -6.09375q0 -0.984375 -0.15625 -1.40625q-0.15625 -0.4375 -0.578125 -0.703125q-0.421875 -0.265625 -0.984375 -0.265625q-1.015625 0 -1.6875 0.6875q-0.671875 0.671875 -0.671875 2.15625l0 5.625l-1.640625 0l0 -6.28125q0 -1.09375 -0.40625 -1.640625q-0.40625 -0.546875 -1.3125 -0.546875q-0.6875 0 -1.28125 0.359375q-0.59375 0.359375 -0.859375 1.0625q-0.25 0.703125 -0.25 2.03125l0 5.015625l-1.6406403 0zm22.165817 -3.109375l1.6875 0.203125q-0.40625 1.484375 -1.484375 2.3125q-1.078125 0.8125 -2.765625 0.8125q-2.125 0 -3.375 -1.296875q-1.234375 -1.3125 -1.234375 -3.671875q0 -2.453125 1.25 -3.796875q1.265625 -1.34375 3.265625 -1.34375q1.9375 0 3.15625 1.328125q1.234375 1.3125 1.234375 3.703125q0 0.15625 0 0.4375l-7.21875 0q0.09375 1.59375 0.90625 2.453125q0.8125 0.84375 2.015625 0.84375q0.90625 0 1.546875 -0.46875q0.640625 -0.484375 1.015625 -1.515625zm-5.390625 -2.65625l5.40625 0q-0.109375 -1.21875 -0.625 -1.828125q-0.78125 -0.953125 -2.03125 -0.953125q-1.125 0 -1.90625 0.765625q-0.765625 0.75 -0.84375 2.015625zm9.141327 5.765625l0 -9.671875l1.46875 0l0 1.375q1.0625 -1.59375 3.078125 -1.59375q0.875 0 1.609375 0.3125q0.734375 0.3125 1.09375 0.828125q0.375 0.5 0.515625 1.203125q0.09375 0.453125 0.09375 1.59375l0 5.953125l-1.640625 0l0 -5.890625q0 -1.0 -0.203125 -1.484375q-0.1875 -0.5 -0.671875 -0.796875q-0.484375 -0.296875 -1.140625 -0.296875q-1.046875 0 -1.8125 0.671875q-0.75 0.65625 -0.75 2.515625l0 5.28125l-1.640625 0zm13.953857 -1.46875l0.234375 1.453125q-0.6875 0.140625 -1.234375 0.140625q-0.890625 0 -1.390625 -0.28125q-0.484375 -0.28125 -0.6875 -0.734375q-0.203125 -0.46875 -0.203125 -1.9375l0 -5.578125l-1.203125 0l0 -1.265625l1.203125 0l0 -2.390625l1.625 -0.984375l0 3.375l1.65625 0l0 1.265625l-1.65625 0l0 5.671875q0 0.6875 0.078125 0.890625q0.09375 0.203125 0.28125 0.328125q0.203125 0.109375 0.578125 0.109375q0.265625 0 0.71875 -0.0625zm13.054108 1.46875l0 -1.21875q-0.90625 1.4375 -2.703125 1.4375q-1.15625 0 -2.125 -0.640625q-0.96875 -0.640625 -1.5 -1.78125q-0.53125 -1.140625 -0.53125 -2.625q0 -1.453125 0.484375 -2.625q0.484375 -1.1875 1.4375 -1.8125q0.96875 -0.625 2.171875 -0.625q0.875 0 1.546875 0.375q0.6875 0.359375 1.109375 0.953125l0 -4.796875l1.640625 0l0 13.359375l-1.53125 0zm-5.171875 -4.828125q0 1.859375 0.78125 2.78125q0.78125 0.921875 1.84375 0.921875q1.078125 0 1.828125 -0.875q0.75 -0.890625 0.75 -2.6875q0 -1.984375 -0.765625 -2.90625q-0.765625 -0.9375 -1.890625 -0.9375q-1.078125 0 -1.8125 0.890625q-0.734375 0.890625 -0.734375 2.8125zm15.906952 1.71875l1.6875 0.203125q-0.40625 1.484375 -1.484375 2.3125q-1.078125 0.8125 -2.765625 0.8125q-2.125 0 -3.375 -1.296875q-1.234375 -1.3125 -1.234375 -3.671875q0 -2.453125 1.25 -3.796875q1.265625 -1.34375 3.265625 -1.34375q1.9375 0 3.15625 1.328125q1.234375 1.3125 1.234375 3.703125q0 0.15625 0 0.4375l-7.21875 0q0.09375 1.59375 0.90625 2.453125q0.8125 0.84375 2.015625 0.84375q0.90625 0 1.546875 -0.46875q0.640625 -0.484375 1.015625 -1.515625zm-5.390625 -2.65625l5.40625 0q-0.109375 -1.21875 -0.625 -1.828125q-0.78125 -0.953125 -2.03125 -0.953125q-1.125 0 -1.90625 0.765625q-0.765625 0.75 -0.84375 2.015625z" fill-rule="nonzero"/></g></svg>